<?xml version="1.0" standalone="no"?>
<!DOCTYPE svg PUBLIC "-//W3C//DTD SVG 20010904//EN"
 "http://www.w3.org/TR/2001/REC-SVG-20010904/DTD/svg10.dtd">
<svg version="1.0" xmlns="http://www.w3.org/2000/svg"
 width="24.000000pt" height="24.000000pt" viewBox="0 0 24.000000 24.000000"
 preserveAspectRatio="xMidYMid meet">

<g transform="translate(0.000000,24.000000) scale(0.100000,-0.100000)"
fill="#000000" stroke="none">
<path d="M101 206 c-9 -11 -9 -20 -2 -35 16 -28 14 -38 -9 -44 -11 -3 -23 -13
-26 -24 -3 -10 -10 -28 -16 -40 -13 -26 -4 -43 23 -43 23 0 36 27 20 43 -16
16 -13 35 7 46 41 22 82 -15 51 -46 -17 -17 -3 -43 21 -43 24 0 38 26 21 43
-6 6 -11 19 -11 28 0 10 -12 26 -26 36 -23 17 -25 22 -13 40 10 18 10 24 0 37
-17 20 -25 20 -40 2z m29 -16 c0 -5 -4 -10 -10 -10 -5 0 -10 5 -10 10 0 6 5
10 10 10 6 0 10 -4 10 -10z m-50 -140 c0 -5 -4 -10 -10 -10 -5 0 -10 5 -10 10
0 6 5 10 10 10 6 0 10 -4 10 -10z m100 0 c0 -5 -4 -10 -10 -10 -5 0 -10 5 -10
10 0 6 5 10 10 10 6 0 10 -4 10 -10z"/>
</g>
</svg>
